<?xml version="1.0" encoding="UTF-8" standalone="no"?><!DOCTYPE svg PUBLIC "-//W3C//DTD SVG 1.1//EN" "http://www.w3.org/Graphics/SVG/1.1/DTD/svg11.dtd"><svg width="429px" height="100px" version="1.1" xmlns="http://www.w3.org/2000/svg" xmlns:xlink="http://www.w3.org/1999/xlink" xml:space="preserve" xmlns:serif="http://www.serif.com/" style="fill-rule:evenodd;clip-rule:evenodd;stroke-linejoin:round;stroke-miterlimit:2;"><g transform="matrix(1,0,0,1,-307.333,-113.495)"><g transform="matrix(1.64832,0,0,1.64832,98.7751,-466.243)"><path d="M131.01,387.977C130.259,387.698 129.604,387.327 129.04,386.885C127.438,385.631 126.528,383.857 126.528,381.465L126.528,381.442L126.528,375.965L126.528,375.596L126.534,375.596C126.62,373.045 127.603,371.112 129.288,369.712C130.564,368.652 132.199,367.949 134.235,367.732L134.492,366.126L134.494,366.113C134.948,363.41 136.07,361.437 137.65,360.085C139.244,358.721 141.368,357.927 144.096,357.927C147.329,357.927 149.582,359.051 151.034,360.855C152.351,362.492 153.028,364.733 152.695,367.661L153.219,367.661C155.422,367.661 157.142,368.201 158.434,369.073C158.541,368.988 158.652,368.905 158.764,368.823C160.219,367.777 161.999,367.195 164.137,367.195C166.638,367.195 168.49,367.995 169.803,369.283C170.886,370.346 171.88,372.129 172.499,374.783L173.533,379.386L177.463,372.059L177.465,372.055C178.381,370.358 179.491,369.184 180.684,368.437C181.927,367.658 183.495,367.195 185.424,367.195C187.56,367.195 189.24,367.841 190.53,368.937C191.743,369.969 192.697,371.525 193.157,373.729L194.48,379.877L197.988,373.327L197.993,373.317C199.195,371.105 200.51,369.622 201.791,368.749C203.23,367.769 205.073,367.195 207.364,367.195C209.756,367.195 211.555,367.848 212.844,368.868C213.365,369.281 213.81,369.737 214.176,370.239C213.86,369.421 213.681,368.511 213.659,367.504C213.658,367.363 213.658,367.221 213.659,367.079L213.659,361.957C213.65,361.423 213.684,360.862 213.766,360.272L213.769,360.247C214.204,357.406 215.446,355.307 217.323,353.854C219.066,352.505 221.411,351.715 224.427,351.715C227.493,351.715 229.733,352.624 231.267,354.081C232.152,354.922 232.806,355.931 233.172,357.123C233.55,356.617 233.972,356.163 234.433,355.758C236.101,354.294 238.34,353.447 241.226,353.447C244.351,353.447 246.554,354.637 247.993,356.679C248.961,358.053 249.53,359.829 249.512,362.043L249.512,367.294C249.513,367.394 249.513,367.494 249.512,367.595C249.504,368.235 249.448,368.91 249.338,369.623C249.338,369.623 247.209,382.971 245.981,390.671C246.026,390.671 246.071,390.67 246.116,390.67C247.34,390.67 248.377,391.011 249.241,391.661L249.246,391.657C248.699,390.325 248.416,388.857 248.406,387.25C248.406,387.222 248.406,387.194 248.406,387.165L248.406,381.665C248.406,381.648 248.406,381.631 248.406,381.614C248.416,378.953 249.196,376.467 250.774,374.164C252.275,371.974 254.486,370.163 257.475,368.819C260.191,367.597 263.567,366.939 267.621,366.939C269.124,366.939 270.754,367.088 272.509,367.395C274.297,367.708 275.951,368.185 277.47,368.819C279.386,369.552 280.699,370.634 281.532,371.895C281.762,372.244 281.959,372.596 282.123,372.953C282.343,372.746 282.568,372.544 282.797,372.347C284.915,370.529 287.292,369.168 289.929,368.265C292.508,367.382 295.168,366.939 297.908,366.939C301.955,366.939 305.395,367.704 308.248,369.145C310.198,370.13 311.847,371.374 313.202,372.87C313.61,371.826 314.216,370.923 314.994,370.152C316.337,368.821 318.067,368.001 320.237,367.825C321.186,364.205 322.985,361.227 325.586,358.866C328.655,356.079 333.327,354.342 339.703,353.988L341.173,353.902C343.364,353.769 345.032,354.344 346.26,355.317C347.291,356.135 348.03,357.131 348.483,358.298C349.39,358.056 350.39,357.927 351.488,357.927C354.721,357.927 356.974,359.051 358.426,360.855C359.743,362.492 360.42,364.733 360.087,367.661L360.611,367.661C362.916,367.661 364.691,368.251 366.001,369.196C366.243,369.37 366.47,369.556 366.682,369.754C366.829,366.551 366.943,364.045 366.943,364.045C367.056,360.791 368.082,358.356 369.745,356.639C371.478,354.849 373.924,353.808 377.19,353.808C380.789,353.808 383.3,355.149 384.899,357.446C385.856,358.82 386.4,360.483 386.399,362.448L386.399,367.955C386.399,369.081 386.219,370.305 385.837,371.631L380.644,390.753L380.632,390.794C380.474,391.326 380.286,391.818 380.073,392.272C380.827,393.664 381.226,395.286 381.226,397.153C381.226,397.218 381.225,397.283 381.224,397.348L381.224,402.46C381.225,402.524 381.226,402.588 381.226,402.653C381.226,402.718 381.225,402.783 381.224,402.848C381.183,405.597 380.276,407.816 378.634,409.554C376.931,411.358 374.577,412.383 371.478,412.383C368.469,412.383 366.124,411.392 364.367,409.602C364.159,409.389 363.961,409.169 363.776,408.942C363.706,409.032 363.636,409.117 363.564,409.199C362.352,410.579 360.814,411.48 358.99,411.861C358.264,412.036 357.491,412.169 356.672,412.256C355.87,412.342 355.112,412.383 354.398,412.383C350.442,412.383 347.236,411.595 344.746,410.168C341.972,408.577 340.063,406.375 338.974,403.598C338.29,401.853 337.936,399.94 337.941,397.855L337.941,392.409C337.941,391.406 338.024,390.364 338.194,389.281L338.301,388.611L336.19,388.638L333.804,403.802L333.801,403.82C333.325,406.649 332.155,408.717 330.503,410.131C328.835,411.558 326.611,412.383 323.756,412.383C320.63,412.383 318.425,411.189 316.985,409.132C315.73,407.339 315.152,404.888 315.645,401.708L315.768,400.93C315.714,400.713 315.666,400.49 315.627,400.261C314.369,402.935 312.68,405.169 310.576,406.976C308.459,408.794 306.081,410.154 303.444,411.058C300.864,411.941 298.205,412.383 295.465,412.383C291.418,412.383 287.978,411.618 285.125,410.177C282.902,409.054 281.069,407.591 279.617,405.799C278.79,406.955 277.752,407.974 276.508,408.861C273.308,411.143 269.075,412.383 263.756,412.383C261.565,412.383 259.433,412.195 257.361,411.822C255.254,411.442 253.426,410.953 251.859,410.364L251.847,410.359C250.929,410.005 250.146,409.571 249.486,409.073C248.421,410.372 247.177,411.22 245.825,411.675C245.226,411.894 244.411,412.09 243.371,412.219C242.488,412.33 241.639,412.383 240.824,412.383C235.432,412.383 231.632,410.655 229.243,407.656C228.16,406.297 227.371,404.662 226.927,402.741L226.761,403.786C226.316,406.602 225.169,408.673 223.53,410.101C221.878,411.541 219.639,412.383 216.734,412.383C213.609,412.383 211.403,411.189 209.963,409.132C209.023,407.79 208.463,406.079 208.448,403.968C208.448,403.911 208.448,403.854 208.448,403.797L208.448,398.467C208.448,398.411 208.448,398.354 208.448,398.298C208.452,397.639 208.509,396.942 208.624,396.206L209.084,393.314L201.46,406.641L201.455,406.65C200.318,408.61 198.953,410.008 197.443,410.919C195.879,411.863 194.002,412.383 191.788,412.383C189.418,412.383 187.443,411.662 185.828,410.319C184.327,409.069 183.169,407.243 182.513,404.717L181.979,402.523L179.893,406.392L179.89,406.398C178.793,408.414 177.449,409.864 175.942,410.823C174.361,411.829 172.453,412.383 170.193,412.383C167.826,412.383 165.872,411.681 164.293,410.394C162.824,409.197 161.645,407.376 160.952,404.8L156.522,387.779C155.414,388.28 154.135,388.547 152.672,388.547C152.672,388.547 150.276,388.547 150.276,388.547L149.931,390.692C149.993,390.684 150.051,390.674 150.106,390.661C150.773,390.502 151.509,390.414 152.314,390.414C154.415,390.414 155.834,391.206 156.759,392.312C157.458,393.147 158.114,394.662 158.114,397.012C158.114,397.056 158.114,397.1 158.113,397.143L158.113,402.512L158.113,402.863L158.11,402.863C158.052,405.922 157.235,407.988 156.172,409.199C154.96,410.579 153.422,411.48 151.598,411.861C150.872,412.036 150.099,412.169 149.28,412.256C148.478,412.342 147.72,412.383 147.006,412.383C143.05,412.383 139.844,411.595 137.354,410.168C134.58,408.577 132.671,406.375 131.582,403.598C130.889,401.83 130.534,399.89 130.55,397.773L130.55,392.529C130.542,391.489 130.625,390.407 130.802,389.281L131.01,387.977Z" style="fill:rgb(64,40,0);"/><path d="M147.006,403.383C143.769,403.383 141.132,402.799 139.095,401.631C137.058,400.463 135.64,398.86 134.841,396.821C134.041,394.782 133.847,392.451 134.259,389.828L135.903,379.547L134.477,379.547C133.071,379.547 131.978,379.242 131.198,378.63C130.418,378.019 130.028,377.131 130.028,375.965C130.028,374.42 130.526,373.233 131.524,372.404C132.522,371.576 133.885,371.161 135.613,371.161L137.231,371.161L137.946,366.692C138.24,364.938 138.9,363.621 139.926,362.744C140.951,361.866 142.341,361.427 144.096,361.427C146.033,361.427 147.437,361.968 148.307,363.049C149.177,364.131 149.464,365.661 149.169,367.641L148.623,371.161L153.219,371.161C154.64,371.161 155.754,371.452 156.562,372.035C157.37,372.617 157.774,373.498 157.774,374.678C157.774,376.057 157.32,377.213 156.414,378.147C155.507,379.08 154.26,379.547 152.672,379.547L147.295,379.547L145.715,389.357C145.427,391.113 145.636,392.361 146.342,393.103C147.047,393.845 148.047,394.216 149.342,394.216C149.973,394.216 150.499,394.166 150.92,394.065C151.341,393.965 151.806,393.914 152.314,393.914C153.129,393.914 153.716,394.129 154.075,394.558C154.434,394.987 154.614,395.805 154.614,397.012C154.614,399.117 154.256,400.576 153.542,401.389C152.828,402.203 151.915,402.724 150.805,402.952C150.211,403.096 149.579,403.204 148.908,403.276C148.237,403.347 147.603,403.383 147.006,403.383ZM193.064,389.933L201.068,374.988C201.937,373.388 202.835,372.273 203.762,371.642C204.688,371.011 205.889,370.695 207.364,370.695C208.797,370.695 209.899,371.001 210.672,371.612C211.444,372.224 211.865,373.035 211.935,374.047C212.005,375.058 211.696,376.176 211.009,377.398L198.427,399.394C197.628,400.772 196.697,401.782 195.635,402.422C194.573,403.063 193.291,403.383 191.788,403.383C190.313,403.383 189.072,402.965 188.067,402.128C187.062,401.292 186.342,400.037 185.907,398.363L183.225,387.339L176.815,399.225C176.042,400.646 175.125,401.694 174.063,402.37C173.001,403.045 171.711,403.383 170.193,403.383C168.718,403.383 167.488,402.982 166.504,402.181C165.52,401.379 164.797,400.12 164.335,398.404L159.099,378.283C158.707,376.765 158.669,375.444 158.986,374.32C159.302,373.196 159.909,372.311 160.808,371.665C161.707,371.018 162.816,370.695 164.137,370.695C165.542,370.695 166.614,371.057 167.352,371.781C168.089,372.505 168.668,373.766 169.087,375.564L172.179,389.317L180.545,373.717C181.123,372.646 181.789,371.874 182.542,371.403C183.295,370.931 184.255,370.695 185.424,370.695C186.604,370.695 187.55,370.998 188.263,371.604C188.975,372.209 189.465,373.16 189.733,374.456L193.064,389.933ZM216.734,403.383C214.952,403.383 213.651,402.797 212.829,401.624C212.008,400.452 211.759,398.827 212.081,396.749L215.326,376.338C215.621,374.471 216.316,373.064 217.411,372.116C218.506,371.169 220.001,370.695 221.895,370.695C223.678,370.695 224.98,371.278 225.801,372.442C226.622,373.607 226.871,375.236 226.549,377.329L223.304,397.739C223.009,399.607 222.318,401.015 221.231,401.962C220.144,402.91 218.645,403.383 216.734,403.383ZM222.674,366.196C220.706,366.196 219.248,365.722 218.298,364.773C217.349,363.824 216.993,362.491 217.229,360.775C217.509,358.943 218.255,357.559 219.466,356.621C220.677,355.684 222.331,355.215 224.427,355.215C226.395,355.215 227.871,355.683 228.856,356.618C229.84,357.554 230.192,358.893 229.912,360.636C229.633,362.468 228.885,363.853 227.668,364.79C226.451,365.728 224.786,366.196 222.674,366.196ZM240.824,403.383C236.738,403.383 233.79,402.247 231.98,399.975C230.17,397.703 229.604,394.408 230.283,390.089L234.657,362.632C234.952,360.764 235.647,359.35 236.742,358.389C237.837,357.428 239.332,356.947 241.226,356.947C243.009,356.947 244.311,357.53 245.132,358.695C245.953,359.86 246.202,361.489 245.88,363.581L241.675,389.944C241.459,391.386 241.605,392.475 242.115,393.214C242.625,393.952 243.379,394.321 244.378,394.321C244.738,394.321 245.047,394.296 245.305,394.246C245.563,394.195 245.834,394.17 246.116,394.17C246.68,394.17 247.13,394.374 247.468,394.782C247.806,395.189 247.974,395.956 247.974,397.081C247.974,398.864 247.643,400.202 246.981,401.095C246.319,401.988 245.544,402.582 244.655,402.876C244.244,403.032 243.672,403.155 242.938,403.246C242.205,403.338 241.5,403.383 240.824,403.383ZM263.756,403.383C261.778,403.383 259.853,403.215 257.982,402.877C256.11,402.54 254.484,402.112 253.104,401.592C251.966,401.154 251.148,400.551 250.651,399.782C250.154,399.014 249.931,398.204 249.981,397.354C250.032,396.503 250.293,395.752 250.764,395.1C251.236,394.447 251.883,393.989 252.706,393.725C253.529,393.461 254.475,393.548 255.543,393.986C256.881,394.533 258.249,394.956 259.647,395.257C261.045,395.557 262.387,395.707 263.675,395.707C265.353,395.707 266.568,395.443 267.322,394.914C268.075,394.386 268.452,393.748 268.452,393.001C268.452,392.421 268.255,391.969 267.862,391.645C267.469,391.322 266.792,391.081 265.831,390.922L260.148,389.992C257.501,389.578 255.466,388.636 254.042,387.168C252.618,385.699 251.906,383.865 251.906,381.665C251.906,379.691 252.491,377.85 253.661,376.143C254.831,374.436 256.581,373.058 258.91,372.011C261.24,370.963 264.143,370.439 267.621,370.439C268.939,370.439 270.367,370.574 271.906,370.843C273.445,371.112 274.868,371.521 276.176,372.071C277.31,372.498 278.121,373.082 278.611,373.823C279.1,374.565 279.319,375.339 279.267,376.147C279.215,376.954 278.949,377.677 278.47,378.314C277.99,378.951 277.329,379.394 276.484,379.642C275.64,379.891 274.684,379.816 273.616,379.416C272.631,379.01 271.553,378.691 270.382,378.46C269.211,378.23 268.095,378.114 267.033,378.114C265.269,378.114 263.982,378.38 263.172,378.91C262.363,379.441 261.958,380.128 261.958,380.972C261.958,381.44 262.121,381.843 262.449,382.18C262.776,382.517 263.323,382.751 264.09,382.882L269.774,383.812C272.715,384.285 274.905,385.248 276.345,386.701C277.784,388.154 278.504,389.98 278.504,392.18C278.504,395.82 277.161,398.597 274.476,400.511C271.791,402.426 268.218,403.383 263.756,403.383ZM295.465,403.383C292.039,403.383 289.119,402.773 286.703,401.553C284.288,400.332 282.446,398.615 281.177,396.4C279.909,394.185 279.274,391.607 279.274,388.667C279.274,385.633 279.797,382.979 280.843,380.704C281.888,378.429 283.3,376.528 285.077,375.002C286.855,373.476 288.85,372.334 291.063,371.576C293.276,370.818 295.558,370.439 297.908,370.439C301.334,370.439 304.255,371.049 306.67,372.269C309.086,373.489 310.928,375.203 312.196,377.41C313.465,379.618 314.099,382.199 314.099,385.155C314.099,388.189 313.576,390.844 312.53,393.119C311.484,395.394 310.073,397.294 308.296,398.82C306.519,400.346 304.524,401.488 302.31,402.246C300.097,403.004 297.815,403.383 295.465,403.383ZM295.698,394.973C297.143,394.973 298.381,394.541 299.411,393.677C300.442,392.813 301.238,391.605 301.8,390.053C302.362,388.5 302.643,386.742 302.643,384.776C302.643,382.886 302.206,381.425 301.33,380.394C300.455,379.364 299.237,378.848 297.675,378.848C296.245,378.848 295.011,379.28 293.973,380.145C292.934,381.009 292.134,382.207 291.573,383.737C291.011,385.268 290.73,387.037 290.73,389.045C290.73,390.936 291.175,392.397 292.064,393.427C292.953,394.458 294.164,394.973 295.698,394.973ZM343.295,379.547L333.192,379.675L330.349,397.739C329.717,401.502 327.519,403.383 323.756,403.383C321.974,403.383 320.673,402.797 319.852,401.624C319.031,400.452 318.781,398.827 319.103,396.749L321.8,379.675L320.502,379.675C319.097,379.675 318.012,379.38 317.247,378.79C316.482,378.2 316.099,377.371 316.099,376.303C316.099,374.758 316.552,373.536 317.459,372.637C318.365,371.739 319.591,371.289 321.136,371.289L323.126,371.289L323.197,370.815C323.768,366.928 325.348,363.809 327.938,361.457C330.528,359.106 334.519,357.781 339.909,357.482L341.385,357.395C342.539,357.325 343.438,357.547 344.085,358.059C344.731,358.572 345.156,359.218 345.36,359.999C345.563,360.779 345.563,361.584 345.36,362.413C345.156,363.242 344.777,363.951 344.221,364.541C343.666,365.131 342.959,365.461 342.101,365.531L340.537,365.659C338.673,365.83 337.287,366.284 336.38,367.022C335.474,367.76 334.89,368.887 334.63,370.401L334.493,371.289L344.623,371.161L345.338,366.692C345.632,364.938 346.292,363.621 347.318,362.744C348.343,361.866 349.733,361.427 351.488,361.427C353.425,361.427 354.829,361.968 355.699,363.049C356.569,364.131 356.856,365.661 356.561,367.641L356.015,371.161L360.611,371.161C362.032,371.161 363.146,371.452 363.954,372.035C364.762,372.617 365.166,373.498 365.166,374.678C365.166,376.057 364.712,377.213 363.806,378.147C362.899,379.08 361.652,379.547 360.064,379.547L354.687,379.547L353.107,389.357C352.819,391.113 353.028,392.361 353.734,393.103C354.439,393.845 355.439,394.216 356.734,394.216C357.365,394.216 357.891,394.166 358.312,394.065C358.733,393.965 359.198,393.914 359.706,393.914C360.521,393.914 361.108,394.129 361.467,394.558C361.826,394.987 362.006,395.805 362.006,397.012C362.006,399.117 361.648,400.576 360.934,401.389C360.22,402.203 359.307,402.724 358.197,402.952C357.603,403.096 356.971,403.204 356.3,403.276C355.629,403.347 354.995,403.383 354.398,403.383C351.161,403.383 348.524,402.799 346.487,401.631C344.45,400.463 343.032,398.86 342.233,396.821C341.433,394.782 341.239,392.451 341.651,389.828L343.295,379.547ZM373.073,387.708C371.935,387.708 371.05,387.372 370.419,386.7C369.788,386.028 369.502,384.941 369.56,383.438L370.441,364.187C370.514,361.955 371.12,360.25 372.26,359.073C373.399,357.897 375.042,357.308 377.19,357.308C379.422,357.308 381.035,358.021 382.027,359.446C383.019,360.871 383.165,362.785 382.466,365.188L377.278,384.295C376.944,385.417 376.433,386.267 375.746,386.843C375.058,387.42 374.167,387.708 373.073,387.708ZM371.478,403.383C369.536,403.383 367.999,402.806 366.866,401.651C365.732,400.496 365.166,398.997 365.166,397.153C365.166,395.325 365.732,393.843 366.866,392.71C367.999,391.576 369.536,391.009 371.478,391.009C373.462,391.009 374.999,391.576 376.09,392.71C377.18,393.843 377.726,395.325 377.726,397.153C377.726,398.997 377.18,400.496 376.09,401.651C374.999,402.806 373.462,403.383 371.478,403.383Z" style="fill:rgb(254,255,242);"/><clipPath id="_clip1"><path d="M147.006,403.383C143.769,403.383 141.132,402.799 139.095,401.631C137.058,400.463 135.64,398.86 134.841,396.821C134.041,394.782 133.847,392.451 134.259,389.828L135.903,379.547L134.477,379.547C133.071,379.547 131.978,379.242 131.198,378.63C130.418,378.019 130.028,377.131 130.028,375.965C130.028,374.42 130.526,373.233 131.524,372.404C132.522,371.576 133.885,371.161 135.613,371.161L137.231,371.161L137.946,366.692C138.24,364.938 138.9,363.621 139.926,362.744C140.951,361.866 142.341,361.427 144.096,361.427C146.033,361.427 147.437,361.968 148.307,363.049C149.177,364.131 149.464,365.661 149.169,367.641L148.623,371.161L153.219,371.161C154.64,371.161 155.754,371.452 156.562,372.035C157.37,372.617 157.774,373.498 157.774,374.678C157.774,376.057 157.32,377.213 156.414,378.147C155.507,379.08 154.26,379.547 152.672,379.547L147.295,379.547L145.715,389.357C145.427,391.113 145.636,392.361 146.342,393.103C147.047,393.845 148.047,394.216 149.342,394.216C149.973,394.216 150.499,394.166 150.92,394.065C151.341,393.965 151.806,393.914 152.314,393.914C153.129,393.914 153.716,394.129 154.075,394.558C154.434,394.987 154.614,395.805 154.614,397.012C154.614,399.117 154.256,400.576 153.542,401.389C152.828,402.203 151.915,402.724 150.805,402.952C150.211,403.096 149.579,403.204 148.908,403.276C148.237,403.347 147.603,403.383 147.006,403.383ZM193.064,389.933L201.068,374.988C201.937,373.388 202.835,372.273 203.762,371.642C204.688,371.011 205.889,370.695 207.364,370.695C208.797,370.695 209.899,371.001 210.672,371.612C211.444,372.224 211.865,373.035 211.935,374.047C212.005,375.058 211.696,376.176 211.009,377.398L198.427,399.394C197.628,400.772 196.697,401.782 195.635,402.422C194.573,403.063 193.291,403.383 191.788,403.383C190.313,403.383 189.072,402.965 188.067,402.128C187.062,401.292 186.342,400.037 185.907,398.363L183.225,387.339L176.815,399.225C176.042,400.646 175.125,401.694 174.063,402.37C173.001,403.045 171.711,403.383 170.193,403.383C168.718,403.383 167.488,402.982 166.504,402.181C165.52,401.379 164.797,400.12 164.335,398.404L159.099,378.283C158.707,376.765 158.669,375.444 158.986,374.32C159.302,373.196 159.909,372.311 160.808,371.665C161.707,371.018 162.816,370.695 164.137,370.695C165.542,370.695 166.614,371.057 167.352,371.781C168.089,372.505 168.668,373.766 169.087,375.564L172.179,389.317L180.545,373.717C181.123,372.646 181.789,371.874 182.542,371.403C183.295,370.931 184.255,370.695 185.424,370.695C186.604,370.695 187.55,370.998 188.263,371.604C188.975,372.209 189.465,373.16 189.733,374.456L193.064,389.933ZM216.734,403.383C214.952,403.383 213.651,402.797 212.829,401.624C212.008,400.452 211.759,398.827 212.081,396.749L215.326,376.338C215.621,374.471 216.316,373.064 217.411,372.116C218.506,371.169 220.001,370.695 221.895,370.695C223.678,370.695 224.98,371.278 225.801,372.442C226.622,373.607 226.871,375.236 226.549,377.329L223.304,397.739C223.009,399.607 222.318,401.015 221.231,401.962C220.144,402.91 218.645,403.383 216.734,403.383ZM222.674,366.196C220.706,366.196 219.248,365.722 218.298,364.773C217.349,363.824 216.993,362.491 217.229,360.775C217.509,358.943 218.255,357.559 219.466,356.621C220.677,355.684 222.331,355.215 224.427,355.215C226.395,355.215 227.871,355.683 228.856,356.618C229.84,357.554 230.192,358.893 229.912,360.636C229.633,362.468 228.885,363.853 227.668,364.79C226.451,365.728 224.786,366.196 222.674,366.196ZM240.824,403.383C236.738,403.383 233.79,402.247 231.98,399.975C230.17,397.703 229.604,394.408 230.283,390.089L234.657,362.632C234.952,360.764 235.647,359.35 236.742,358.389C237.837,357.428 239.332,356.947 241.226,356.947C243.009,356.947 244.311,357.53 245.132,358.695C245.953,359.86 246.202,361.489 245.88,363.581L241.675,389.944C241.459,391.386 241.605,392.475 242.115,393.214C242.625,393.952 243.379,394.321 244.378,394.321C244.738,394.321 245.047,394.296 245.305,394.246C245.563,394.195 245.834,394.17 246.116,394.17C246.68,394.17 247.13,394.374 247.468,394.782C247.806,395.189 247.974,395.956 247.974,397.081C247.974,398.864 247.643,400.202 246.981,401.095C246.319,401.988 245.544,402.582 244.655,402.876C244.244,403.032 243.672,403.155 242.938,403.246C242.205,403.338 241.5,403.383 240.824,403.383ZM263.756,403.383C261.778,403.383 259.853,403.215 257.982,402.877C256.11,402.54 254.484,402.112 253.104,401.592C251.966,401.154 251.148,400.551 250.651,399.782C250.154,399.014 249.931,398.204 249.981,397.354C250.032,396.503 250.293,395.752 250.764,395.1C251.236,394.447 251.883,393.989 252.706,393.725C253.529,393.461 254.475,393.548 255.543,393.986C256.881,394.533 258.249,394.956 259.647,395.257C261.045,395.557 262.387,395.707 263.675,395.707C265.353,395.707 266.568,395.443 267.322,394.914C268.075,394.386 268.452,393.748 268.452,393.001C268.452,392.421 268.255,391.969 267.862,391.645C267.469,391.322 266.792,391.081 265.831,390.922L260.148,389.992C257.501,389.578 255.466,388.636 254.042,387.168C252.618,385.699 251.906,383.865 251.906,381.665C251.906,379.691 252.491,377.85 253.661,376.143C254.831,374.436 256.581,373.058 258.91,372.011C261.24,370.963 264.143,370.439 267.621,370.439C268.939,370.439 270.367,370.574 271.906,370.843C273.445,371.112 274.868,371.521 276.176,372.071C277.31,372.498 278.121,373.082 278.611,373.823C279.1,374.565 279.319,375.339 279.267,376.147C279.215,376.954 278.949,377.677 278.47,378.314C277.99,378.951 277.329,379.394 276.484,379.642C275.64,379.891 274.684,379.816 273.616,379.416C272.631,379.01 271.553,378.691 270.382,378.46C269.211,378.23 268.095,378.114 267.033,378.114C265.269,378.114 263.982,378.38 263.172,378.91C262.363,379.441 261.958,380.128 261.958,380.972C261.958,381.44 262.121,381.843 262.449,382.18C262.776,382.517 263.323,382.751 264.09,382.882L269.774,383.812C272.715,384.285 274.905,385.248 276.345,386.701C277.784,388.154 278.504,389.98 278.504,392.18C278.504,395.82 277.161,398.597 274.476,400.511C271.791,402.426 268.218,403.383 263.756,403.383ZM295.465,403.383C292.039,403.383 289.119,402.773 286.703,401.553C284.288,400.332 282.446,398.615 281.177,396.4C279.909,394.185 279.274,391.607 279.274,388.667C279.274,385.633 279.797,382.979 280.843,380.704C281.888,378.429 283.3,376.528 285.077,375.002C286.855,373.476 288.85,372.334 291.063,371.576C293.276,370.818 295.558,370.439 297.908,370.439C301.334,370.439 304.255,371.049 306.67,372.269C309.086,373.489 310.928,375.203 312.196,377.41C313.465,379.618 314.099,382.199 314.099,385.155C314.099,388.189 313.576,390.844 312.53,393.119C311.484,395.394 310.073,397.294 308.296,398.82C306.519,400.346 304.524,401.488 302.31,402.246C300.097,403.004 297.815,403.383 295.465,403.383ZM295.698,394.973C297.143,394.973 298.381,394.541 299.411,393.677C300.442,392.813 301.238,391.605 301.8,390.053C302.362,388.5 302.643,386.742 302.643,384.776C302.643,382.886 302.206,381.425 301.33,380.394C300.455,379.364 299.237,378.848 297.675,378.848C296.245,378.848 295.011,379.28 293.973,380.145C292.934,381.009 292.134,382.207 291.573,383.737C291.011,385.268 290.73,387.037 290.73,389.045C290.73,390.936 291.175,392.397 292.064,393.427C292.953,394.458 294.164,394.973 295.698,394.973ZM343.295,379.547L333.192,379.675L330.349,397.739C329.717,401.502 327.519,403.383 323.756,403.383C321.974,403.383 320.673,402.797 319.852,401.624C319.031,400.452 318.781,398.827 319.103,396.749L321.8,379.675L320.502,379.675C319.097,379.675 318.012,379.38 317.247,378.79C316.482,378.2 316.099,377.371 316.099,376.303C316.099,374.758 316.552,373.536 317.459,372.637C318.365,371.739 319.591,371.289 321.136,371.289L323.126,371.289L323.197,370.815C323.768,366.928 325.348,363.809 327.938,361.457C330.528,359.106 334.519,357.781 339.909,357.482L341.385,357.395C342.539,357.325 343.438,357.547 344.085,358.059C344.731,358.572 345.156,359.218 345.36,359.999C345.563,360.779 345.563,361.584 345.36,362.413C345.156,363.242 344.777,363.951 344.221,364.541C343.666,365.131 342.959,365.461 342.101,365.531L340.537,365.659C338.673,365.83 337.287,366.284 336.38,367.022C335.474,367.76 334.89,368.887 334.63,370.401L334.493,371.289L344.623,371.161L345.338,366.692C345.632,364.938 346.292,363.621 347.318,362.744C348.343,361.866 349.733,361.427 351.488,361.427C353.425,361.427 354.829,361.968 355.699,363.049C356.569,364.131 356.856,365.661 356.561,367.641L356.015,371.161L360.611,371.161C362.032,371.161 363.146,371.452 363.954,372.035C364.762,372.617 365.166,373.498 365.166,374.678C365.166,376.057 364.712,377.213 363.806,378.147C362.899,379.08 361.652,379.547 360.064,379.547L354.687,379.547L353.107,389.357C352.819,391.113 353.028,392.361 353.734,393.103C354.439,393.845 355.439,394.216 356.734,394.216C357.365,394.216 357.891,394.166 358.312,394.065C358.733,393.965 359.198,393.914 359.706,393.914C360.521,393.914 361.108,394.129 361.467,394.558C361.826,394.987 362.006,395.805 362.006,397.012C362.006,399.117 361.648,400.576 360.934,401.389C360.22,402.203 359.307,402.724 358.197,402.952C357.603,403.096 356.971,403.204 356.3,403.276C355.629,403.347 354.995,403.383 354.398,403.383C351.161,403.383 348.524,402.799 346.487,401.631C344.45,400.463 343.032,398.86 342.233,396.821C341.433,394.782 341.239,392.451 341.651,389.828L343.295,379.547ZM373.073,387.708C371.935,387.708 371.05,387.372 370.419,386.7C369.788,386.028 369.502,384.941 369.56,383.438L370.441,364.187C370.514,361.955 371.12,360.25 372.26,359.073C373.399,357.897 375.042,357.308 377.19,357.308C379.422,357.308 381.035,358.021 382.027,359.446C383.019,360.871 383.165,362.785 382.466,365.188L377.278,384.295C376.944,385.417 376.433,386.267 375.746,386.843C375.058,387.42 374.167,387.708 373.073,387.708ZM371.478,403.383C369.536,403.383 367.999,402.806 366.866,401.651C365.732,400.496 365.166,398.997 365.166,397.153C365.166,395.325 365.732,393.843 366.866,392.71C367.999,391.576 369.536,391.009 371.478,391.009C373.462,391.009 374.999,391.576 376.09,392.71C377.18,393.843 377.726,395.325 377.726,397.153C377.726,398.997 377.18,400.496 376.09,401.651C374.999,402.806 373.462,403.383 371.478,403.383Z"/></clipPath><g clip-path="url(#_clip1)"><g transform="matrix(1,0,0,1,0.183084,-1.70691)"><path d="M387.484,377.244C351.195,387.542 293.065,397.857 244.784,384.812C201.391,373.087 151.654,377.244 117.791,402.429L117.791,417.037L387.484,417.037L387.484,377.244Z" style="fill:rgb(179,232,169);"/></g><path d="M387.484,377.244C349.948,392.934 283.264,396.079 254.51,387.612C211.391,374.915 148.623,379.964 117.791,402.429L117.791,417.037L387.484,417.037L387.484,377.244Z" style="fill:rgb(0,216,154);"/></g><g transform="matrix(0.895953,-0.00274476,0.00274476,0.895953,-101.479,8.37521)"><path d="M343.995,428.037C343.995,428.037 345.333,431.653 346.137,433.825C346.513,434.84 347.313,435.641 348.328,436.016C350.5,436.82 354.116,438.158 354.116,438.158C354.116,438.158 350.5,439.496 348.328,440.3C347.313,440.676 346.513,441.476 346.137,442.491C345.333,444.663 343.995,448.279 343.995,448.279C343.995,448.279 342.657,444.663 341.853,442.491C341.478,441.476 340.677,440.676 339.662,440.3C337.49,439.496 333.874,438.158 333.874,438.158C333.874,438.158 337.49,436.82 339.662,436.016C340.677,435.641 341.478,434.84 341.853,433.825C342.657,431.653 343.995,428.037 343.995,428.037Z" style="fill:rgb(254,255,242);"/><path d="M345.265,427.567L347.407,433.355C347.646,434 348.154,434.508 348.798,434.746L354.586,436.888C355.118,437.085 355.471,437.591 355.471,438.158C355.471,438.725 355.118,439.232 354.586,439.428L348.798,441.57C348.154,441.809 347.646,442.317 347.407,442.961L345.265,448.749C345.069,449.281 344.562,449.634 343.995,449.634C343.428,449.634 342.922,449.281 342.725,448.749L340.583,442.961C340.345,442.317 339.837,441.809 339.192,441.57L333.404,439.428C332.872,439.232 332.52,438.725 332.52,438.158C332.52,437.591 332.872,437.085 333.404,436.888L339.192,434.746C339.837,434.508 340.345,434 340.583,433.355L342.725,427.567C342.922,427.035 343.428,426.683 343.995,426.683C344.562,426.683 345.069,427.035 345.265,427.567ZM343.995,428.037L341.853,433.825C341.478,434.84 340.677,435.641 339.662,436.016L333.874,438.158L339.662,440.3C340.677,440.676 341.478,441.476 341.853,442.491L343.995,448.279L346.137,442.491C346.513,441.476 347.313,440.676 348.328,440.3L354.116,438.158L348.328,436.016C347.313,435.641 346.513,434.84 346.137,433.825L343.995,428.037Z" style="fill:rgb(64,40,0);"/></g><g transform="matrix(0.832397,-0.331442,0.331442,0.832397,-277.369,140.868)"><path d="M343.995,428.037C343.995,428.037 345.333,431.653 346.137,433.825C346.513,434.84 347.313,435.641 348.328,436.016C350.5,436.82 354.116,438.158 354.116,438.158C354.116,438.158 350.5,439.496 348.328,440.3C347.313,440.676 346.513,441.476 346.137,442.491C345.333,444.663 343.995,448.279 343.995,448.279C343.995,448.279 342.657,444.663 341.853,442.491C341.478,441.476 340.677,440.676 339.662,440.3C337.49,439.496 333.874,438.158 333.874,438.158C333.874,438.158 337.49,436.82 339.662,436.016C340.677,435.641 341.478,434.84 341.853,433.825C342.657,431.653 343.995,428.037 343.995,428.037Z" style="fill:rgb(254,255,242);"/><path d="M345.265,427.567L347.407,433.355C347.646,434 348.154,434.508 348.798,434.746L354.586,436.888C355.118,437.085 355.471,437.591 355.471,438.158C355.471,438.725 355.118,439.232 354.586,439.428L348.798,441.57C348.154,441.809 347.646,442.317 347.407,442.961L345.265,448.749C345.069,449.281 344.562,449.634 343.995,449.634C343.428,449.634 342.922,449.281 342.725,448.749L340.583,442.961C340.345,442.317 339.837,441.809 339.192,441.57L333.404,439.428C332.872,439.232 332.52,438.725 332.52,438.158C332.52,437.591 332.872,437.085 333.404,436.888L339.192,434.746C339.837,434.508 340.345,434 340.583,433.355L342.725,427.567C342.922,427.035 343.428,426.683 343.995,426.683C344.562,426.683 345.069,427.035 345.265,427.567ZM343.995,428.037L341.853,433.825C341.478,434.84 340.677,435.641 339.662,436.016L333.874,438.158L339.662,440.3C340.677,440.676 341.478,441.476 341.853,442.491L343.995,448.279L346.137,442.491C346.513,441.476 347.313,440.676 348.328,440.3L354.116,438.158L348.328,436.016C347.313,435.641 346.513,434.84 346.137,433.825L343.995,428.037Z" style="fill:rgb(64,40,0);"/></g><g transform="matrix(0.665471,0.599906,-0.599906,0.665471,281.384,-109.227)"><path d="M343.995,428.037C343.995,428.037 345.333,431.653 346.137,433.825C346.513,434.84 347.313,435.641 348.328,436.016C350.5,436.82 354.116,438.158 354.116,438.158C354.116,438.158 350.5,439.496 348.328,440.3C347.313,440.676 346.513,441.476 346.137,442.491C345.333,444.663 343.995,448.279 343.995,448.279C343.995,448.279 342.657,444.663 341.853,442.491C341.478,441.476 340.677,440.676 339.662,440.3C337.49,439.496 333.874,438.158 333.874,438.158C333.874,438.158 337.49,436.82 339.662,436.016C340.677,435.641 341.478,434.84 341.853,433.825C342.657,431.653 343.995,428.037 343.995,428.037Z" style="fill:rgb(254,255,242);"/><path d="M345.265,427.567L347.407,433.355C347.646,434 348.154,434.508 348.798,434.746L354.586,436.888C355.118,437.085 355.471,437.591 355.471,438.158C355.471,438.725 355.118,439.232 354.586,439.428L348.798,441.57C348.154,441.809 347.646,442.317 347.407,442.961L345.265,448.749C345.069,449.281 344.562,449.634 343.995,449.634C343.428,449.634 342.922,449.281 342.725,448.749L340.583,442.961C340.345,442.317 339.837,441.809 339.192,441.57L333.404,439.428C332.872,439.232 332.52,438.725 332.52,438.158C332.52,437.591 332.872,437.085 333.404,436.888L339.192,434.746C339.837,434.508 340.345,434 340.583,433.355L342.725,427.567C342.922,427.035 343.428,426.683 343.995,426.683C344.562,426.683 345.069,427.035 345.265,427.567ZM343.995,428.037L341.853,433.825C341.478,434.84 340.677,435.641 339.662,436.016L333.874,438.158L339.662,440.3C340.677,440.676 341.478,441.476 341.853,442.491L343.995,448.279L346.137,442.491C346.513,441.476 347.313,440.676 348.328,440.3L354.116,438.158L348.328,436.016C347.313,435.641 346.513,434.84 346.137,433.825L343.995,428.037Z" style="fill:rgb(64,40,0);"/></g><g transform="matrix(0.859977,0.251352,-0.251352,0.859977,149.67,-71.974)"><path d="M343.995,428.037C343.995,428.037 345.333,431.653 346.137,433.825C346.513,434.84 347.313,435.641 348.328,436.016C350.5,436.82 354.116,438.158 354.116,438.158C354.116,438.158 350.5,439.496 348.328,440.3C347.313,440.676 346.513,441.476 346.137,442.491C345.333,444.663 343.995,448.279 343.995,448.279C343.995,448.279 342.657,444.663 341.853,442.491C341.478,441.476 340.677,440.676 339.662,440.3C337.49,439.496 333.874,438.158 333.874,438.158C333.874,438.158 337.49,436.82 339.662,436.016C340.677,435.641 341.478,434.84 341.853,433.825C342.657,431.653 343.995,428.037 343.995,428.037Z" style="fill:rgb(254,255,242);"/><path d="M345.265,427.567L347.407,433.355C347.646,434 348.154,434.508 348.798,434.746L354.586,436.888C355.118,437.085 355.471,437.591 355.471,438.158C355.471,438.725 355.118,439.232 354.586,439.428L348.798,441.57C348.154,441.809 347.646,442.317 347.407,442.961L345.265,448.749C345.069,449.281 344.562,449.634 343.995,449.634C343.428,449.634 342.922,449.281 342.725,448.749L340.583,442.961C340.345,442.317 339.837,441.809 339.192,441.57L333.404,439.428C332.872,439.232 332.52,438.725 332.52,438.158C332.52,437.591 332.872,437.085 333.404,436.888L339.192,434.746C339.837,434.508 340.345,434 340.583,433.355L342.725,427.567C342.922,427.035 343.428,426.683 343.995,426.683C344.562,426.683 345.069,427.035 345.265,427.567ZM343.995,428.037L341.853,433.825C341.478,434.84 340.677,435.641 339.662,436.016L333.874,438.158L339.662,440.3C340.677,440.676 341.478,441.476 341.853,442.491L343.995,448.279L346.137,442.491C346.513,441.476 347.313,440.676 348.328,440.3L354.116,438.158L348.328,436.016C347.313,435.641 346.513,434.84 346.137,433.825L343.995,428.037Z" style="fill:rgb(64,40,0);"/></g><g transform="matrix(0.835481,-0.32359,0.32359,0.835481,-64.7857,111.985)"><path d="M343.995,428.037C343.995,428.037 345.333,431.653 346.137,433.825C346.513,434.84 347.313,435.641 348.328,436.016C350.5,436.82 354.116,438.158 354.116,438.158C354.116,438.158 350.5,439.496 348.328,440.3C347.313,440.676 346.513,441.476 346.137,442.491C345.333,444.663 343.995,448.279 343.995,448.279C343.995,448.279 342.657,444.663 341.853,442.491C341.478,441.476 340.677,440.676 339.662,440.3C337.49,439.496 333.874,438.158 333.874,438.158C333.874,438.158 337.49,436.82 339.662,436.016C340.677,435.641 341.478,434.84 341.853,433.825C342.657,431.653 343.995,428.037 343.995,428.037Z" style="fill:rgb(254,255,242);"/><path d="M345.265,427.567L347.407,433.355C347.646,434 348.154,434.508 348.798,434.746L354.586,436.888C355.118,437.085 355.471,437.591 355.471,438.158C355.471,438.725 355.118,439.232 354.586,439.428L348.798,441.57C348.154,441.809 347.646,442.317 347.407,442.961L345.265,448.749C345.069,449.281 344.562,449.634 343.995,449.634C343.428,449.634 342.922,449.281 342.725,448.749L340.583,442.961C340.345,442.317 339.837,441.809 339.192,441.57L333.404,439.428C332.872,439.232 332.52,438.725 332.52,438.158C332.52,437.591 332.872,437.085 333.404,436.888L339.192,434.746C339.837,434.508 340.345,434 340.583,433.355L342.725,427.567C342.922,427.035 343.428,426.683 343.995,426.683C344.562,426.683 345.069,427.035 345.265,427.567ZM343.995,428.037L341.853,433.825C341.478,434.84 340.677,435.641 339.662,436.016L333.874,438.158L339.662,440.3C340.677,440.676 341.478,441.476 341.853,442.491L343.995,448.279L346.137,442.491C346.513,441.476 347.313,440.676 348.328,440.3L354.116,438.158L348.328,436.016C347.313,435.641 346.513,434.84 346.137,433.825L343.995,428.037Z" style="fill:rgb(64,40,0);"/></g></g></g></svg>